<svg width="1226" height="710" viewBox="0 0 1226 710" fill="none" xmlns="http://www.w3.org/2000/svg">
<path d="M459.1 468.56C449.48 463.41 441.32 465.89 432.26 475.43C436.4 452.26 436.26 424.16 417.89 419.43C398.97 414.54 388.25 426.32 377.16 454.79C377.58 430.36 372.75 398.85 352.52 397.57C329.77 396.13 322.25 414.84 316.6 456.34C309.53 433.13 290 392.48 267.05 400.54C244.55 408.43 246 430.12 258.5 474.34C246.17 455.25 221.5 426.87 204.99 437.66C189.28 447.9 193.58 464.59 210.99 495.6C199.5 490.6 187.55 490.11 177.99 499.55C156.53 520.75 166.85 540.83 196.63 578.1C226.41 615.37 440.33 549.44 450.48 532.58C460.63 515.72 476.58 477.9 459.1 468.56Z" fill="white" stroke="#FE7624" stroke-width="6" stroke-linecap="round" stroke-linejoin="round"/>
<path d="M460.78 531.88L460.95 531.33L173.29 532.22L173.47 532.77C165.926 534.241 159.244 538.576 154.827 544.867C150.41 551.158 148.601 558.915 149.78 566.51L171.31 705.29L462.93 704.4L484.47 565.62C485.646 558.025 483.836 550.269 479.42 543.979C475.003 537.689 468.323 533.353 460.78 531.88V531.88Z" fill="#FEBA92"/>
<path d="M932 481.85C927.535 481.852 923.075 482.112 918.64 482.63C894.76 449.63 867.35 421.63 838.55 403.85C763.55 357.66 660.55 370.85 564.42 406.44C498.35 430.89 414.6 509.61 360.9 565.44C290.9 570.7 237.09 618.35 240.32 672.86C241.031 684.569 244.308 695.978 249.92 706.28L484.86 707.84C485.27 707.21 485.66 706.56 486.05 705.92L834.5 704.72C834.88 705.25 835.27 705.72 835.66 706.28L1028.58 705.95C1046.44 682.28 1057.17 651.95 1057.17 618.83C1057.14 543.17 1001.1 481.85 932 481.85Z" fill="#5D21D1"/>
<path d="M845.38 408.29C756.72 463.24 677 464.45 625.47 455.61C577.65 447.41 543.21 428.96 531.94 421.79C530.027 422.87 528.11 423.977 526.19 425.11C535.38 431.44 571.38 452.22 623.38 461.33C640.311 464.304 657.469 465.799 674.66 465.8C692.232 465.79 709.769 464.241 727.07 461.17C769.07 453.71 810.7 437.17 850.7 412.02C848.9 410.74 847.127 409.497 845.38 408.29Z" fill="white"/>
<path d="M836.19 502.88C850.29 483.08 867.73 471.95 888.04 469.79C895.398 469.001 902.837 469.464 910.04 471.16C908.167 468.74 906.273 466.357 904.36 464.01C898.847 463.297 893.27 463.223 887.74 463.79C872.47 465.35 850.29 472.79 831.34 499.4C830.88 500.049 830.697 500.853 830.83 501.637C830.963 502.421 831.402 503.119 832.05 503.58C832.558 503.943 833.166 504.139 833.79 504.14C834.261 504.133 834.724 504.015 835.14 503.796C835.557 503.577 835.917 503.264 836.19 502.88V502.88Z" fill="white"/>
<path d="M837.27 573.16H837.33C838.117 573.16 838.873 572.851 839.434 572.299C839.995 571.747 840.317 570.997 840.33 570.21C840.5 561.39 844.06 541.44 856.33 522.63C870.57 500.78 891.52 487.31 918.57 482.54C917.26 480.74 915.94 478.94 914.57 477.16C887.57 482.66 865.72 497.16 851.27 519.35C839.12 538 834.54 558.35 834.27 570.1C834.262 570.499 834.334 570.896 834.481 571.267C834.628 571.638 834.848 571.975 835.127 572.26C835.407 572.545 835.74 572.772 836.108 572.926C836.476 573.081 836.871 573.16 837.27 573.16V573.16Z" fill="white"/>
<path d="M413.58 543.59C402.227 543.117 390.858 543.99 379.71 546.19C376.69 549.217 373.733 552.217 370.84 555.19C381.93 549.1 445.13 541.51 471.23 571.19C471.513 571.506 471.86 571.759 472.248 571.931C472.636 572.104 473.056 572.192 473.48 572.19C474.216 572.194 474.928 571.927 475.48 571.44C476.076 570.914 476.439 570.174 476.49 569.381C476.54 568.588 476.274 567.807 475.75 567.21C458.94 548.08 429.58 544.21 413.58 543.59Z" fill="white"/>
<path d="M465 586.54C429.66 559.88 385.71 558.29 367.07 559L360.87 565.41C371.55 564.54 422.72 562.15 461.38 591.33C462.015 591.81 462.815 592.018 463.604 591.909C464.392 591.799 465.105 591.38 465.585 590.745C466.065 590.11 466.273 589.31 466.163 588.522C466.054 587.733 465.635 587.02 465 586.54Z" fill="white"/>
<path d="M312.54 705.29C312.54 705.29 345.31 608.29 437.61 625.9C529.91 643.51 656.17 681.34 656.17 681.34V705.65L312.54 705.29Z" fill="white" stroke="#2E186A" stroke-width="6" stroke-linecap="round" stroke-linejoin="round"/>
<path d="M1041.28 347.05C1039.03 345.803 1037.1 344.046 1035.65 341.921C1034.2 339.795 1033.27 337.36 1032.93 334.81C1031.93 326.23 1037.69 289.27 1046.93 284.11C1056.17 278.95 1098.49 256 1106.3 256.53C1114.11 257.06 1117.4 324.93 1041.28 347.05Z" fill="white"/>
<path d="M1045.77 288.24C1061.57 232.93 1074.51 220.58 1081.96 225.96C1088.71 230.84 1074.96 266.08 1070.96 284.37" fill="white"/>
<path d="M1045.77 288.24C1061.57 232.93 1074.51 220.58 1081.96 225.96C1088.71 230.84 1074.96 266.08 1070.96 284.37" stroke="#2E186A" stroke-width="6" stroke-linecap="round" stroke-linejoin="round"/>
<path d="M1115.5 276.19C1123.42 263.33 1136.5 263.97 1129.67 285.89C1123.01 307.26 1118.07 335.13 1105.57 347.72C1093.07 360.31 1088.57 365.95 1088.57 365.95C1088.57 365.95 1063.57 459.25 1049.38 536.82C1028.84 649 990.11 670.58 953.9 657.73C917.69 644.88 911 594.17 960.45 495.6C1009.9 397.03 1035.97 339.6 1035.97 339.6" fill="white"/>
<path d="M1115.5 276.19C1123.42 263.33 1136.5 263.97 1129.67 285.89C1123.01 307.26 1118.07 335.13 1105.57 347.72C1093.07 360.31 1088.57 365.95 1088.57 365.95C1088.57 365.95 1063.57 459.25 1049.38 536.82C1028.84 649 990.11 670.58 953.9 657.73C917.69 644.88 911 594.17 960.45 495.6C1009.9 397.03 1035.97 339.6 1035.97 339.6" stroke="#2E186A" stroke-width="6" stroke-linecap="round" stroke-linejoin="round"/>
<path d="M1036.8 341.37C1029.63 336.52 1030.49 308.31 1022.44 296.02C1012.44 280.7 1002.66 264.82 1021.17 267.2C1037.04 269.25 1042.09 283.2 1045.77 288.2" fill="white"/>
<path d="M1036.8 341.37C1029.63 336.52 1030.49 308.31 1022.44 296.02C1012.44 280.7 1002.66 264.82 1021.17 267.2C1037.04 269.25 1042.09 283.2 1045.77 288.2" stroke="#2E186A" stroke-width="6" stroke-linecap="round" stroke-linejoin="round"/>
<path d="M1106.25 299.65C1106.25 299.65 1120.31 265.4 1125.03 249.56C1130.2 232.22 1112.03 229.78 1103.27 254.61" fill="white"/>
<path d="M1106.25 299.65C1106.25 299.65 1120.31 265.4 1125.03 249.56C1130.2 232.22 1112.03 229.78 1103.27 254.61" stroke="#2E186A" stroke-width="6" stroke-linecap="round" stroke-linejoin="round"/>
<path d="M1089.74 290.66C1089.74 290.66 1117.42 227.94 1105.04 222.36C1093.75 217.27 1085.14 240.15 1070.93 284.36" fill="white"/>
<path d="M1089.74 290.66C1089.74 290.66 1117.42 227.94 1105.04 222.36C1093.75 217.27 1085.14 240.15 1070.93 284.36" stroke="#2E186A" stroke-width="6" stroke-linecap="round" stroke-linejoin="round"/>
<path d="M637 336.2L640.88 406.92C640.88 406.92 634.31 445.08 687.32 438.01C740.12 430.96 733.64 399.7 733.64 399.7L717.3 311.85L637 336.2Z" fill="white" stroke="#2E186A" stroke-width="6" stroke-linecap="round" stroke-linejoin="round"/>
<path d="M737.6 222.76C737.6 222.76 778.6 207.38 780.2 250.08C781.8 292.78 737.6 281.72 737.6 281.72" fill="white"/>
<path d="M737.6 222.76C737.6 222.76 778.6 207.38 780.2 250.08C781.8 292.78 737.6 281.72 737.6 281.72" stroke="#2E186A" stroke-width="6" stroke-linecap="round" stroke-linejoin="round"/>
<path d="M631.8 155.61H702.18C712.523 155.61 722.443 159.719 729.757 167.033C737.071 174.347 741.18 184.267 741.18 194.61V277.25C741.18 298.584 732.705 319.045 717.62 334.13C702.534 349.215 682.074 357.69 660.74 357.69V357.69C650.176 357.69 639.716 355.61 629.957 351.567C620.198 347.525 611.33 341.6 603.86 334.13C596.391 326.66 590.466 317.793 586.423 308.033C582.381 298.274 580.3 287.814 580.3 277.25V207.1C580.3 193.444 585.725 180.348 595.381 170.691C605.037 161.035 618.134 155.61 631.79 155.61H631.8Z" fill="white" stroke="#2E186A" stroke-width="6" stroke-linecap="round" stroke-linejoin="round"/>
<path d="M636.14 229L637.2 293.85C637.2 293.85 641.98 300.75 649.67 286.69" stroke="#2E186A" stroke-width="6" stroke-linecap="round" stroke-linejoin="round"/>
<path d="M636.14 307.64C641.98 314.47 655.7 313.35 669.3 304.46C669.3 304.46 674.6 321.83 648.21 324.46" stroke="#2E186A" stroke-width="6" stroke-linecap="round" stroke-linejoin="round"/>
<path d="M661.67 208.11C662.47 207.91 671.02 195.58 684.15 206.11" stroke="#2E186A" stroke-width="6" stroke-linecap="round" stroke-linejoin="round"/>
<path d="M684.15 255.79C686.895 255.79 689.12 252.347 689.12 248.1C689.12 243.853 686.895 240.41 684.15 240.41C681.405 240.41 679.18 243.853 679.18 248.1C679.18 252.347 681.405 255.79 684.15 255.79Z" fill="#2E186A"/>
<path d="M611.45 257.77C614.195 257.77 616.42 254.327 616.42 250.08C616.42 245.833 614.195 242.39 611.45 242.39C608.705 242.39 606.48 245.833 606.48 250.08C606.48 254.327 608.705 257.77 611.45 257.77Z" fill="#2E186A"/>
<path d="M595.56 207.54C596.36 207.37 607.19 192.54 618.1 206.54" stroke="#2E186A" stroke-width="6" stroke-linecap="round" stroke-linejoin="round"/>
<path d="M680.79 138.13C661.32 138.38 646.54 139.36 637.68 140.98C566.11 157.26 577.68 210.3 577.68 210.3C577.68 210.3 612.68 216.97 641.17 174.79C641.17 174.79 680.3 206.72 738.17 219.58C739.1 219.36 740.17 219.07 741.17 218.75V221.68C745.938 220.413 750.873 219.897 755.8 220.15C755.16 199.24 751.42 172.89 734.19 155.88C722 143.8 704 137.82 680.79 138.13Z" fill="#2E186A"/>
<path d="M758.82 215.05C756.54 188.67 750.24 135.72 684.15 135.05C669.312 134.9 654.48 135.722 639.75 137.51" stroke="white" stroke-width="6" stroke-linecap="round" stroke-linejoin="round"/>
<path d="M868.67 94.5901C844 24.0001 773.94 -15.7099 712.22 5.88014C661.49 23.6201 632.22 77.2601 637.06 134.99C646.35 133.35 661 132.38 680.71 132.13C705.58 131.81 724.99 138.36 738.42 151.61C757.42 170.4 761.28 198.96 761.84 221.14C771.03 223.63 779.49 231.14 780.2 250.08C780.27 252 778.59 266.68 779 266.63C778.936 272.425 780.51 278.12 783.54 283.06C790.42 294.16 804.45 301.06 825.26 303.48H825.61C826.406 303.527 827.187 303.255 827.783 302.725C828.378 302.195 828.739 301.451 828.785 300.655C828.831 299.86 828.56 299.078 828.03 298.483C827.5 297.887 826.756 297.527 825.96 297.48C807.11 295.26 794.57 289.36 788.69 279.93C786.612 276.561 785.38 272.739 785.1 268.79C790.24 274.79 799.1 281.26 813.22 281.26C816.942 281.24 820.652 280.834 824.29 280.05C824.688 279.983 825.069 279.837 825.409 279.62C825.75 279.402 826.043 279.119 826.271 278.785C826.499 278.452 826.657 278.076 826.736 277.68C826.815 277.284 826.814 276.876 826.732 276.481C826.65 276.086 826.488 275.711 826.258 275.379C826.027 275.048 825.732 274.766 825.391 274.551C825.049 274.336 824.667 274.193 824.268 274.129C823.869 274.065 823.462 274.083 823.07 274.18C804.88 277.96 794.72 271.03 789.49 264.85C793.589 263.952 797.629 262.806 801.59 261.42C863.31 239.88 893.34 165.17 868.67 94.5901Z" fill="#2E186A"/>
<path d="M688.53 286.68C708.744 286.68 725.13 270.294 725.13 250.08C725.13 229.866 708.744 213.48 688.53 213.48C668.316 213.48 651.93 229.866 651.93 250.08C651.93 270.294 668.316 286.68 688.53 286.68Z" stroke="#2E186A" stroke-width="6" stroke-linecap="round" stroke-linejoin="round"/>
<path d="M627.25 249.09H651.13" stroke="#2E186A" stroke-width="6" stroke-linecap="round" stroke-linejoin="round"/>
<path d="M720.53 232.31L741.18 220.64" stroke="#2E186A" stroke-width="6" stroke-linecap="round" stroke-linejoin="round"/>
<path d="M589.46 286.68C609.674 286.68 626.06 270.294 626.06 250.08C626.06 229.866 609.674 213.48 589.46 213.48C569.246 213.48 552.86 229.866 552.86 250.08C552.86 270.294 569.246 286.68 589.46 286.68Z" stroke="#2E186A" stroke-width="6" stroke-linecap="round" stroke-linejoin="round"/>
<path d="M841.16 667.88H820.37L810.15 516.61C809.735 511.422 807.4 506.575 803.601 503.017C799.803 499.459 794.814 497.445 789.61 497.37H499.82C497.342 497.335 494.885 497.819 492.605 498.791C490.326 499.762 488.275 501.201 486.585 503.013C484.895 504.826 483.604 506.972 482.793 509.314C481.983 511.655 481.672 514.141 481.88 516.61L493.19 684.08C493.603 689.269 495.937 694.117 499.736 697.675C503.535 701.234 508.525 703.247 513.73 703.32L841.16 702.9C842.584 702.9 843.993 702.62 845.308 702.075C846.623 701.53 847.818 700.732 848.825 699.725C849.832 698.718 850.63 697.523 851.175 696.208C851.72 694.893 852 693.483 852 692.06V678.72C852 677.296 851.72 675.887 851.175 674.572C850.63 673.257 849.832 672.062 848.825 671.055C847.818 670.048 846.623 669.25 845.308 668.705C843.993 668.16 842.584 667.88 841.16 667.88V667.88Z" fill="#FE7624"/>
<path d="M665.22 597.4C661.065 593.092 655.679 590.175 649.8 589.05C650.753 587.682 651.332 586.09 651.48 584.43C651.71 581.828 650.952 579.235 649.357 577.166C647.761 575.098 645.445 573.707 642.87 573.27C642.76 573.27 642.64 573.27 642.53 573.27C641.41 569.14 639.3 562.38 636.88 559.49C636.436 558.951 635.824 558.577 635.142 558.428C634.46 558.28 633.748 558.365 633.12 558.67C632.846 558.824 632.613 559.04 632.438 559.3C632.264 559.561 632.153 559.859 632.115 560.171C632.077 560.483 632.113 560.799 632.22 561.094C632.327 561.389 632.501 561.655 632.73 561.87C634.32 563.77 636.26 569.69 637.47 574.2C636.083 574.937 634.905 576.015 634.048 577.332C633.191 578.649 632.682 580.162 632.57 581.73C632.453 583.197 632.646 584.673 633.135 586.061C633.624 587.449 634.399 588.72 635.41 589.79C633.633 590.354 631.931 591.129 630.34 592.1C619.92 598.57 618.64 611.45 627.48 620.86C636.32 630.27 651.94 632.66 662.36 626.19C672.78 619.72 674.07 606.81 665.22 597.4Z" fill="white"/>
<path d="M660.83 558.999C660.83 558.999 645.83 555.999 643.83 568.489C643.87 568.509 655.66 572.739 660.83 558.999Z" fill="white"/>
<path d="M3 706.26H1222.07" stroke="#2E186A" stroke-width="6" stroke-linecap="round" stroke-linejoin="round"/>
</svg>
